<?xml version="1.0" standalone="no"?>
<!DOCTYPE svg PUBLIC "-//W3C//DTD SVG 20010904//EN"
 "http://www.w3.org/TR/2001/REC-SVG-20010904/DTD/svg10.dtd">
<svg version="1.0" xmlns="http://www.w3.org/2000/svg"
 width="783.000000pt" height="783.000000pt" viewBox="0 0 783.000000 783.000000"
 preserveAspectRatio="xMidYMid meet">
<metadata>
Created by potrace 1.14, written by Peter Selinger 2001-2017
</metadata>
<g transform="translate(0.000000,783.000000) scale(0.100000,-0.100000)"
fill="#000000" stroke="none">
<path d="M2643 7451 c-17 -11 -37 -29 -43 -41 -17 -31 -15 -96 4 -125 35 -53
55 -56 339 -56 289 -1 312 -5 346 -59 18 -30 19 -54 19 -348 l0 -317 -114 1
c-62 0 -116 3 -120 6 -3 4 -7 49 -9 100 -3 103 -20 156 -69 226 -36 52 -107
106 -167 128 -53 20 -363 29 -407 13 -31 -12 -71 -55 -73 -78 -1 -9 -3 -26 -4
-38 -3 -28 27 -77 60 -99 21 -14 54 -17 183 -18 128 -1 161 -4 180 -18 44 -30
55 -57 57 -139 2 -67 0 -79 -14 -80 -9 -1 -50 -2 -91 -3 -146 -5 -250 -61
-319 -171 -53 -83 -54 -100 -57 -515 -1 -212 -2 -388 -3 -392 -1 -5 -337 -8
-748 -8 -722 0 -750 -1 -791 -20 -60 -27 -97 -65 -123 -125 l-22 -50 -1 -1890
0 -1890 -78 -1 c-84 -1 -114 -14 -145 -61 -16 -24 -18 -57 -18 -317 0 -272 2
-296 22 -361 53 -168 177 -285 351 -330 49 -13 470 -15 3119 -15 2208 0 3077
3 3115 11 131 28 263 127 324 244 56 107 59 133 59 451 0 259 -2 293 -18 317
-31 47 -62 61 -143 61 -41 0 -75 3 -75 6 -1 3 -2 853 -3 1890 -1 1592 -4 1890
-16 1920 -23 58 -68 107 -122 134 l-52 26 -748 0 c-591 0 -748 3 -749 13 -1 6
-2 183 -3 392 -1 209 -6 394 -11 410 -28 103 -104 191 -204 237 -55 25 -77 30
-162 31 -57 1 -100 6 -100 12 -8 59 -3 135 12 165 29 59 46 64 222 66 170 2
189 7 224 61 22 33 21 91 -2 127 -32 49 -55 54 -245 52 -146 -2 -183 -6 -220
-21 -156 -66 -231 -180 -234 -358 0 -51 -4 -94 -8 -97 -4 -3 -58 -5 -120 -5
l-113 0 -1 315 c-1 345 0 354 57 389 28 17 56 19 300 19 291 1 310 4 345 58
22 32 21 96 0 130 -35 52 -62 56 -380 52 l-291 -3 -57 -27 c-79 -37 -142 -99
-181 -177 l-32 -66 -5 -345 -5 -345 -358 0 -357 0 0 318 c0 174 0 319 -1 322
-24 137 -99 238 -218 294 l-56 26 -300 3 c-284 3 -302 2 -332 -17z m182 -1599
c0 -227 -2 -417 -6 -423 -3 -6 -52 -9 -120 -7 l-114 3 0 382 1 382 29 31 c35
36 64 45 148 45 l62 -1 0 -412z m2375 373 l35 -35 1 -373 c0 -204 -2 -378 -4
-384 -3 -10 -36 -13 -121 -13 l-116 0 -1 418 c0 233 4 420 9 423 5 4 43 5 86
2 71 -3 78 -6 111 -38z"/>
</g>
</svg>
